<svg width="80" height="80" viewBox="0 0 80 80" fill="none" xmlns="http://www.w3.org/2000/svg">
<path d="M9.99999 10H70C71.841 10 73.3333 11.4924 73.3333 13.3333V66.6667C73.3333 68.5077 71.841 70 70 70H9.99999C8.15906 70 6.66666 68.5077 6.66666 66.6667V13.3333C6.66666 11.4924 8.15906 10 9.99999 10ZM13.3333 16.6667V63.3333H66.6667V16.6667H13.3333ZM66.6667 40L54.8817 51.785L50.1677 47.071L57.2387 40L50.1677 32.9289L54.8817 28.2149L66.6667 40ZM22.7614 40L29.8325 47.071L25.1184 51.785L13.3333 40L25.1184 28.2149L29.8325 32.9289L22.7614 40ZM37.481 56.6667H30.3866L42.519 23.3333H49.6133L37.481 56.6667Z" fill="#39CCCC"/>
</svg>
