<svg width="43" height="43" viewBox="0 0 43 43" fill="none" xmlns="http://www.w3.org/2000/svg">
<path d="M32.1918 0C33.6612 0 35.0453 0.281934 36.3439 0.845803C37.6425 1.40967 38.7788 2.17858 39.7527 3.15254C40.7267 4.12649 41.4956 5.26277 42.0595 6.56138C42.6233 7.85998 42.9053 9.24402 42.9053 10.7135V32.1405C42.9053 33.61 42.6233 35.0026 42.0595 36.3182C41.4956 37.6339 40.7267 38.7788 39.7527 39.7527C38.7788 40.7267 37.6425 41.4956 36.3439 42.0595C35.0453 42.6233 33.6612 42.9053 32.1918 42.9053H10.7135C9.24402 42.9053 7.85998 42.6233 6.56138 42.0595C5.26277 41.4956 4.12649 40.7267 3.15254 39.7527C2.17858 38.7788 1.40967 37.6339 0.845803 36.3182C0.281934 35.0026 0 33.61 0 32.1405V10.7135C0 9.24402 0.281934 7.85998 0.845803 6.56138C1.40967 5.26277 2.17858 4.12649 3.15254 3.15254C4.12649 2.17858 5.26277 1.40967 6.56138 0.845803C7.85998 0.281934 9.24402 0 10.7135 0H32.1918ZM29.4749 9.38072H24.964C24.0755 9.38072 23.2553 9.5345 22.5035 9.84207C21.7516 10.1496 21.1023 10.5512 20.5556 11.0467C20.0088 11.5422 19.5731 12.1146 19.2484 12.7639C18.9238 13.4132 18.7614 14.0625 18.7614 14.7118V17.4287H14.7631V22.7598H18.7614V33.5245H24.1438V22.7598H28.1422V17.4287H24.1438V16.0959C24.1438 15.6516 24.3061 15.3099 24.6308 15.0707C24.9554 14.8314 25.2374 14.7118 25.4766 14.7118H29.4749V9.38072Z" fill="#39CCCC"/>
</svg>
