<svg width="43" height="43" viewBox="0 0 43 43" fill="none" xmlns="http://www.w3.org/2000/svg">
<path d="M28.7092 21.4806C28.7092 20.8996 28.6238 20.2673 28.4529 19.5838H30.6061V29.9396C30.6061 30.213 30.5121 30.4352 30.3241 30.6061C30.1361 30.7769 29.9054 30.8624 29.632 30.8624H12.7653C12.4919 30.8624 12.2698 30.7769 12.0989 30.6061C11.928 30.4352 11.8425 30.213 11.8425 29.9396V19.5838H13.9445C13.7736 20.2673 13.6881 20.8996 13.6881 21.4806C13.6881 22.506 13.8847 23.48 14.2777 24.4028C14.6707 25.3256 15.209 26.1202 15.8926 26.7867C16.5761 27.4532 17.3793 27.9829 18.3021 28.376C19.2249 28.769 20.199 28.9655 21.2243 28.9655C22.2496 28.9655 23.2237 28.769 24.1465 28.376C25.0693 27.9829 25.8639 27.4532 26.5304 26.7867C27.1968 26.1202 27.7266 25.3256 28.1196 24.4028C28.5127 23.48 28.7092 22.506 28.7092 21.4806ZM21.2243 26.1459C20.5749 26.1459 19.9597 26.0263 19.3787 25.787C18.7977 25.5478 18.2936 25.2145 17.8664 24.7873C17.4391 24.3601 17.1059 23.8645 16.8667 23.3006C16.6274 22.7367 16.5078 22.13 16.5078 21.4806C16.5078 20.8313 16.6274 20.2161 16.8667 19.635C17.1059 19.054 17.4391 18.5499 17.8664 18.1227C18.2936 17.6955 18.7977 17.3622 19.3787 17.123C19.9597 16.8837 20.5749 16.7641 21.2243 16.7641C21.8737 16.7641 22.4803 16.8837 23.0443 17.123C23.6082 17.3622 24.1038 17.6955 24.531 18.1227C24.9582 18.5499 25.2914 19.054 25.5307 19.635C25.7699 20.2161 25.8895 20.8313 25.8895 21.4806C25.8895 22.13 25.7699 22.7367 25.5307 23.3006C25.2914 23.8645 24.9582 24.3601 24.531 24.7873C24.1038 25.2145 23.6082 25.5478 23.0443 25.787C22.4803 26.0263 21.8737 26.1459 21.2243 26.1459ZM29.632 12.0989C29.9054 12.0989 30.1361 12.1843 30.3241 12.3552C30.5121 12.5261 30.6061 12.7483 30.6061 13.0217V15.8413C30.6061 16.1147 30.5121 16.3369 30.3241 16.5078C30.1361 16.6787 29.9054 16.7641 29.632 16.7641H26.8123C26.5389 16.7641 26.3168 16.6787 26.1459 16.5078C25.975 16.3369 25.8895 16.1147 25.8895 15.8413V13.0217C25.8895 12.7483 25.975 12.5261 26.1459 12.3552C26.3168 12.1843 26.5389 12.0989 26.8123 12.0989H29.632ZM32.1441 0C33.6137 0 35.0064 0.281965 36.3223 0.845896C37.6381 1.40983 38.7831 2.17882 39.7571 3.15289C40.7312 4.12695 41.5002 5.26335 42.0641 6.5621C42.628 7.86085 42.91 9.24505 42.91 10.7147V32.1441C42.91 33.6137 42.628 35.0064 42.0641 36.3223C41.5002 37.6381 40.7312 38.7831 39.7571 39.7571C38.7831 40.7312 37.6381 41.5002 36.3223 42.0641C35.0064 42.628 33.6137 42.91 32.1441 42.91H10.7147C9.24505 42.91 7.86085 42.628 6.5621 42.0641C5.26335 41.5002 4.12695 40.7312 3.15289 39.7571C2.17882 38.7831 1.40983 37.6381 0.845896 36.3223C0.281965 35.0064 0 33.6137 0 32.1441V10.7147C0 9.24505 0.281965 7.86085 0.845896 6.5621C1.40983 5.26335 2.17882 4.12695 3.15289 3.15289C4.12695 2.17882 5.26335 1.40983 6.5621 0.845896C7.86085 0.281965 9.24505 0 10.7147 0H32.1441ZM33.4257 12.0989C33.4257 11.3128 33.1523 10.6463 32.6054 10.0995C32.0586 9.55264 31.3921 9.27922 30.6061 9.27922H11.8425C11.0565 9.27922 10.39 9.55264 9.84315 10.0995C9.29631 10.6463 9.02289 11.3128 9.02289 12.0989V30.8624C9.02289 31.6485 9.29631 32.3149 9.84315 32.8618C10.39 33.4086 11.0565 33.682 11.8425 33.682H30.6061C31.3921 33.682 32.0586 33.4086 32.6054 32.8618C33.1523 32.3149 33.4257 31.6485 33.4257 30.8624V12.0989Z" fill="#39CCCC"/>
</svg>
