<svg width="60" height="60" viewBox="0 0 60 60" fill="none" xmlns="http://www.w3.org/2000/svg">
<path d="M18.21 14.5062H25.2431V34.22C25.2431 43.1037 20.985 46.205 14.1825 46.205C12.5175 46.205 10.3875 45.9275 9 45.4644L9.7875 39.7719C10.7587 40.0962 12.0094 40.3269 13.3969 40.3269C16.3594 40.3269 18.21 38.9844 18.21 34.1731V14.5062ZM31.35 38.4781C33.2006 39.4494 36.1631 40.4225 39.1706 40.4225C42.4106 40.4225 44.1225 39.08 44.1225 36.9987C44.1225 35.1012 42.6412 33.9444 38.8931 32.6487C33.7106 30.7981 30.2869 27.9294 30.2869 23.3469C30.2869 18.0256 34.7756 14 42.0863 14C45.6488 14 48.195 14.6937 50.0456 15.5731L48.4725 21.2188C47.2687 20.6169 45.0019 19.7375 41.9944 19.7375C38.94 19.7375 37.4587 21.1719 37.4587 22.745C37.4587 24.7344 39.1706 25.6137 43.2431 27.1869C48.75 29.2231 51.2944 32.0919 51.2944 36.5337C51.2944 41.7631 47.3156 46.205 38.7544 46.205C35.1919 46.205 31.6744 45.2337 29.9156 44.2606L31.35 38.4781Z" fill="#39CCCC"/>
</svg>
