<svg width="43" height="43" viewBox="0 0 43 43" fill="none" xmlns="http://www.w3.org/2000/svg">
<path d="M32.1918 0C33.6612 0 35.0453 0.281934 36.3439 0.845803C37.6425 1.40967 38.7788 2.17858 39.7527 3.15254C40.7267 4.12649 41.4956 5.26277 42.0595 6.56138C42.6233 7.85998 42.9053 9.24403 42.9053 10.7135V32.1405C42.9053 33.61 42.6233 35.0026 42.0595 36.3183C41.4956 37.6339 40.7267 38.7788 39.7527 39.7527C38.7788 40.7267 37.6425 41.4956 36.3439 42.0595C35.0453 42.6233 33.6612 42.9053 32.1918 42.9053H10.7135C9.24403 42.9053 7.85998 42.6233 6.56138 42.0595C5.26277 41.4956 4.12649 40.7267 3.15254 39.7527C2.17858 38.7788 1.40967 37.6339 0.845803 36.3183C0.281934 35.0026 0 33.61 0 32.1405V10.7135C0 9.24403 0.281934 7.85998 0.845803 6.56138C1.40967 5.26277 2.17858 4.12649 3.15254 3.15254C4.12649 2.17858 5.26277 1.40967 6.56138 0.845803C7.85998 0.281934 9.24403 0 10.7135 0H32.1918ZM14.7631 16.0959H9.38072V33.5245H14.7631V16.0959ZM12.0975 14.7118C12.8152 14.7118 13.4389 14.4555 13.9686 13.9429C14.4983 13.4303 14.7631 12.7981 14.7631 12.0463C14.7631 11.2945 14.4983 10.6622 13.9686 10.1496C13.4389 9.63702 12.8152 9.38072 12.0975 9.38072C11.3457 9.38072 10.705 9.63702 10.1753 10.1496C9.64557 10.6622 9.38072 11.2945 9.38072 12.0463C9.38072 12.7981 9.64557 13.4303 10.1753 13.9429C10.705 14.4555 11.3457 14.7118 12.0975 14.7118ZM33.5245 23.4262C33.5245 22.1959 33.1828 20.9913 32.4993 19.8123C31.8158 18.6333 30.9273 17.7362 29.8338 17.1211C28.8427 16.5743 27.6894 16.2838 26.3737 16.2497C25.058 16.2155 23.8704 16.4376 22.811 16.9161V16.0959H17.4287V33.5245H22.811V22.8623L25.0153 21.7858C25.2886 21.6491 25.6646 21.5808 26.143 21.5808C26.6214 21.5808 26.9802 21.6662 27.2195 21.8371C27.4245 21.9396 27.6296 22.1617 27.8346 22.5035C28.0396 22.8452 28.1422 23.1528 28.1422 23.4262V33.5245H33.5245V23.4262Z" fill="#39CCCC"/>
</svg>
