<svg width="80" height="80" viewBox="0 0 80 80" fill="none" xmlns="http://www.w3.org/2000/svg">
<path d="M64.0923 62.441L69.985 56.5483L75.8773 62.441C79.1317 65.6953 79.1317 70.9716 75.8773 74.226C72.623 77.4803 67.3467 77.4803 64.0923 74.226C60.838 70.9716 60.838 65.6953 64.0923 62.441ZM29.5954 3.599L67.3077 41.3113C68.6093 42.613 68.6093 44.7236 67.3077 46.0253L39.0233 74.3096C37.7217 75.6113 35.611 75.6113 34.3093 74.3096L6.02513 46.0253C4.72339 44.7236 4.72339 42.613 6.02513 41.3113L31.9524 15.3841L24.8813 8.31307L29.5954 3.599ZM36.6663 20.0982L13.0962 43.6683H60.2367L36.6663 20.0982Z" fill="#39CCCC"/>
</svg>
